<svg width="15" height="15" viewBox="0 0 15 15" fill="none" xmlns="http://www.w3.org/2000/svg">
<g clip-path="url(#clip0)">
<path d="M12.4502 0.215698H1.9502C0.98507 0.215698 0.200195 1.00057 0.200195 1.9657V12.4657C0.200195 13.4308 0.98507 14.2157 1.9502 14.2157H12.4502C13.4153 14.2157 14.2002 13.4308 14.2002 12.4657V1.9657C14.2002 1.00057 13.4153 0.215698 12.4502 0.215698Z" fill="#1976D2"/>
<path d="M12.0127 7.2157H9.8252V5.4657C9.8252 4.9827 10.2172 5.0282 10.7002 5.0282H11.5752V2.8407H9.8252C8.37532 2.8407 7.2002 4.01582 7.2002 5.4657V7.2157H5.4502V9.4032H7.2002V14.2157H9.8252V9.4032H11.1377L12.0127 7.2157Z" fill="#FAFAFA"/>
</g>
<defs>
<clipPath id="clip0">
<rect x="0.200195" y="0.215698" width="14" height="14" fill="white"/>
</clipPath>
</defs>
</svg>
