<svg width="15" height="15" viewBox="0 0 15 15" fill="none" xmlns="http://www.w3.org/2000/svg">
<g clip-path="url(#clip0)">
<path d="M3.30289 8.50321L2.81557 10.3224L1.03443 10.3601C0.502125 9.37283 0.200195 8.24323 0.200195 7.04284C0.200195 5.88207 0.482492 4.78745 0.982883 3.82361H0.983266L2.56898 4.11433L3.26363 5.69053C3.11824 6.11438 3.039 6.56938 3.039 7.04284C3.03905 7.55668 3.13213 8.04901 3.30289 8.50321Z" fill="#FBBB00"/>
<path d="M14.0781 5.73511C14.1584 6.15855 14.2004 6.59586 14.2004 7.0428C14.2004 7.54395 14.1477 8.0328 14.0473 8.50435C13.7065 10.109 12.8161 11.5101 11.5827 12.5016L11.5823 12.5013L9.58501 12.3994L9.30233 10.6347C10.1208 10.1547 10.7604 9.40357 11.0973 8.50435H7.35425V5.73511H11.1519H14.0781Z" fill="#518EF8"/>
<path d="M11.5821 12.5014L11.5825 12.5017C10.3829 13.466 8.85903 14.0429 7.20019 14.0429C4.53442 14.0429 2.21674 12.5529 1.03442 10.3602L3.30289 8.5033C3.89403 10.081 5.41596 11.2041 7.20019 11.2041C7.9671 11.2041 8.68559 10.9967 9.30211 10.6348L11.5821 12.5014Z" fill="#28B446"/>
<path d="M11.6683 1.65438L9.4006 3.51091C8.76254 3.11207 8.00829 2.88167 7.20022 2.88167C5.3756 2.88167 3.82521 4.05628 3.26368 5.69053L0.983293 3.82361H0.98291C2.14792 1.57746 4.49483 0.0428467 7.20022 0.0428467C8.89868 0.0428467 10.456 0.647854 11.6683 1.65438Z" fill="#F14336"/>
</g>
<defs>
<clipPath id="clip0">
<rect x="0.200195" y="0.0428467" width="14" height="14" fill="white"/>
</clipPath>
</defs>
</svg>
