<svg width="15" height="15" viewBox="0 0 15 15" fill="none" xmlns="http://www.w3.org/2000/svg">
<path d="M7.50028 9.64289C8.68375 9.64289 9.64314 8.6835 9.64314 7.50003C9.64314 6.31657 8.68375 5.35718 7.50028 5.35718C6.31681 5.35718 5.35742 6.31657 5.35742 7.50003C5.35742 8.6835 6.31681 9.64289 7.50028 9.64289Z" fill="black"/>
<path d="M14.9517 4.42732C14.9433 3.7975 14.8252 3.17395 14.6027 2.58454C14.4097 2.08739 14.115 1.63588 13.7374 1.25887C13.3597 0.881858 12.9075 0.587635 12.4095 0.395C11.8267 0.176591 11.211 0.0584943 10.5886 0.0457368C9.78732 0.00997899 9.53326 0 7.49917 0C5.46507 0 5.20435 5.57616e-08 4.40887 0.0457368C3.78678 0.058588 3.17138 0.176684 2.58885 0.395C2.09079 0.587501 1.63846 0.881676 1.2608 1.2587C0.883145 1.63573 0.588479 2.08731 0.395657 2.58454C0.176447 3.16593 0.05841 3.78044 0.0466459 4.40154C0.0108285 5.20235 0 5.45598 0 7.4867C0 9.51741 -6.20606e-09 9.77686 0.0466459 10.5718C0.0591404 11.1939 0.176588 11.8076 0.395657 12.3905C0.588803 12.8876 0.883687 13.339 1.26147 13.7159C1.63925 14.0927 2.09162 14.3868 2.58968 14.5792C3.17062 14.8064 3.78613 14.933 4.40971 14.9534C5.21185 14.9892 5.4659 15 7.5 15C9.5341 15 9.79481 15 10.5903 14.9534C11.2126 14.9412 11.8284 14.8234 12.4112 14.605C12.909 14.4121 13.3612 14.1178 13.7388 13.7409C14.1164 13.3639 14.4112 12.9125 14.6043 12.4155C14.8234 11.8334 14.9409 11.2196 14.9534 10.5968C14.9892 9.79682 15 9.54319 15 7.51164C14.9983 5.48093 14.9983 5.22314 14.9517 4.42732ZM7.49417 11.3269C5.36678 11.3269 3.64338 9.60639 3.64338 7.48254C3.64338 5.35869 5.36678 3.63815 7.49417 3.63815C8.51546 3.63815 9.49493 4.04319 10.2171 4.76415C10.9393 5.48511 11.345 6.46294 11.345 7.48254C11.345 8.50213 10.9393 9.47997 10.2171 10.2009C9.49493 10.9219 8.51546 11.3269 7.49417 11.3269ZM11.4982 4.39239C11.0009 4.39239 10.6003 3.99157 10.6003 3.49595C10.6003 3.37829 10.6235 3.26177 10.6686 3.15306C10.7137 3.04435 10.7798 2.94557 10.8632 2.86237C10.9465 2.77916 11.0455 2.71316 11.1543 2.66813C11.2632 2.6231 11.3799 2.59993 11.4978 2.59993C11.6157 2.59993 11.7324 2.6231 11.8413 2.66813C11.9502 2.71316 12.0491 2.77916 12.1324 2.86237C12.2158 2.94557 12.2819 3.04435 12.327 3.15306C12.3721 3.26177 12.3953 3.37829 12.3953 3.49595C12.3953 3.99157 11.9938 4.39239 11.4982 4.39239Z" fill="black"/>
</svg>
