<svg width="182" height="29" viewBox="0 0 182 29" fill="none" xmlns="http://www.w3.org/2000/svg">
<path d="M39.2061 15.5312C39.2061 13.5078 39.6318 11.9297 40.4834 10.7969C41.335 9.65625 42.5029 9.08594 43.9873 9.08594C44.9404 9.08594 45.7803 9.30078 46.5068 9.73047C47.2412 10.1602 47.835 10.8008 48.2881 11.6523V4H48.9209V22H48.2881V19.9727C47.8584 20.6914 47.2686 21.25 46.5186 21.6484C45.7686 22.0391 44.917 22.2344 43.9639 22.2344C42.4951 22.2344 41.335 21.6523 40.4834 20.4883C39.6318 19.3242 39.2061 17.7266 39.2061 15.6953V15.5312ZM39.8623 15.7773C39.8623 17.5742 40.2178 18.9961 40.9287 20.043C41.6396 21.082 42.6475 21.6016 43.9521 21.6016C44.999 21.6016 45.8936 21.3711 46.6357 20.9102C47.3779 20.4414 47.9287 19.7578 48.2881 18.8594V12.918C47.5615 10.7852 46.124 9.71875 43.9756 9.71875C42.6787 9.71875 41.667 10.2305 40.9404 11.2539C40.2217 12.2773 39.8623 13.7852 39.8623 15.7773ZM57.5656 22H56.9328V9.32031H57.5656V22ZM56.6046 5.35938C56.6046 5.17969 56.6671 5.02734 56.7921 4.90234C56.9171 4.76953 57.0695 4.70312 57.2492 4.70312C57.4289 4.70312 57.5812 4.76953 57.7062 4.90234C57.839 5.02734 57.9054 5.17969 57.9054 5.35938C57.9054 5.53906 57.839 5.69141 57.7062 5.81641C57.5812 5.94141 57.4289 6.00391 57.2492 6.00391C57.0695 6.00391 56.9171 5.94141 56.7921 5.81641C56.6671 5.69141 56.6046 5.53906 56.6046 5.35938ZM69.8665 21.6016C71.015 21.6016 71.9603 21.2969 72.7025 20.6875C73.4525 20.0781 73.8626 19.2344 73.9329 18.1562H74.5657C74.5032 19.3828 74.0306 20.3711 73.1478 21.1211C72.265 21.8633 71.1712 22.2344 69.8665 22.2344C68.2806 22.2344 67.0189 21.6602 66.0814 20.5117C65.1517 19.3633 64.6868 17.8047 64.6868 15.8359V15.4141C64.6868 13.4922 65.1517 11.957 66.0814 10.8086C67.0189 9.66016 68.2728 9.08594 69.8431 9.08594C71.1868 9.08594 72.2962 9.48828 73.1712 10.293C74.0462 11.0977 74.5111 12.168 74.5657 13.5039H73.9329C73.8782 12.3633 73.4759 11.4492 72.7259 10.7617C71.9837 10.0664 71.0228 9.71875 69.8431 9.71875C68.429 9.71875 67.3196 10.2305 66.515 11.2539C65.7181 12.2695 65.3196 13.6836 65.3196 15.4961V15.9062C65.3196 17.6797 65.722 19.0742 66.5267 20.0898C67.3392 21.0977 68.4525 21.6016 69.8665 21.6016ZM86.1518 22.2344C85.1284 22.2344 84.187 21.9609 83.3276 21.4141C82.4761 20.8594 81.8081 20.1016 81.3237 19.1406C80.8393 18.1797 80.5971 17.1133 80.5971 15.9414V15.4141C80.5971 14.2422 80.8315 13.168 81.3003 12.1914C81.769 11.2148 82.4136 10.4531 83.2339 9.90625C84.0542 9.35938 84.9487 9.08594 85.9175 9.08594C87.3315 9.08594 88.4878 9.58984 89.3862 10.5977C90.2846 11.6055 90.7339 12.9297 90.7339 14.5703V15.2383H81.23V15.9297C81.23 16.9609 81.4448 17.918 81.8745 18.8008C82.312 19.6758 82.9096 20.3633 83.6675 20.8633C84.4331 21.3633 85.2612 21.6133 86.1518 21.6133C87.0034 21.6133 87.7261 21.4727 88.3198 21.1914C88.9214 20.9023 89.4526 20.4609 89.9136 19.8672L90.3589 20.1836C89.4136 21.5508 88.0112 22.2344 86.1518 22.2344ZM85.9175 9.71875C84.6831 9.71875 83.6362 10.1797 82.7768 11.1016C81.9175 12.0156 81.4136 13.1836 81.2651 14.6055H90.1011V14.4531C90.1011 13.5938 89.9175 12.7969 89.5503 12.0625C89.1909 11.3203 88.6909 10.7461 88.0503 10.3398C87.4175 9.92578 86.7065 9.71875 85.9175 9.71875ZM96.9411 15.5312C96.9411 13.5078 97.3668 11.9297 98.2184 10.7969C99.07 9.65625 100.238 9.08594 101.722 9.08594C102.675 9.08594 103.515 9.30078 104.242 9.73047C104.976 10.1602 105.57 10.8008 106.023 11.6523V4H106.656V22H106.023V19.9727C105.593 20.6914 105.004 21.25 104.254 21.6484C103.504 22.0391 102.652 22.2344 101.699 22.2344C100.23 22.2344 99.07 21.6523 98.2184 20.4883C97.3668 19.3242 96.9411 17.7266 96.9411 15.6953V15.5312ZM97.5973 15.7773C97.5973 17.5742 97.9528 18.9961 98.6637 20.043C99.3746 21.082 100.382 21.6016 101.687 21.6016C102.734 21.6016 103.629 21.3711 104.371 20.9102C105.113 20.4414 105.664 19.7578 106.023 18.8594V12.918C105.297 10.7852 103.859 9.71875 101.711 9.71875C100.414 9.71875 99.402 10.2305 98.6754 11.2539C97.9567 12.2773 97.5973 13.7852 97.5973 15.7773Z" fill="black"/>
<path d="M117.784 6.07422V9.32031H120.409V10.4688H117.784V18.918C117.784 19.6211 117.909 20.1445 118.159 20.4883C118.417 20.832 118.843 21.0039 119.437 21.0039C119.671 21.0039 120.05 20.9648 120.573 20.8867L120.632 22.0352C120.265 22.168 119.765 22.2344 119.132 22.2344C118.171 22.2344 117.472 21.957 117.034 21.4023C116.597 20.8398 116.378 20.0156 116.378 18.9297V10.4688H114.046V9.32031H116.378V6.07422H117.784ZM132.535 10.5156C132.238 10.4609 131.922 10.4336 131.586 10.4336C130.711 10.4336 129.968 10.6797 129.359 11.1719C128.757 11.6562 128.328 12.3633 128.07 13.293V22H126.675V9.32031H128.047L128.07 11.3359C128.812 9.83594 130.004 9.08594 131.644 9.08594C132.035 9.08594 132.343 9.13672 132.57 9.23828L132.535 10.5156ZM142.797 22.2344C141.719 22.2344 140.742 21.9688 139.867 21.4375C139 20.9062 138.324 20.168 137.84 19.2227C137.356 18.2695 137.114 17.2031 137.114 16.0234V15.5195C137.114 14.3008 137.348 13.2031 137.817 12.2266C138.293 11.25 138.953 10.4844 139.797 9.92969C140.641 9.36719 141.555 9.08594 142.539 9.08594C144.078 9.08594 145.297 9.61328 146.196 10.668C147.102 11.7148 147.555 13.1484 147.555 14.9688V15.7539H138.508V16.0234C138.508 17.4609 138.918 18.6602 139.739 19.6211C140.567 20.5742 141.606 21.0508 142.856 21.0508C143.606 21.0508 144.266 20.9141 144.836 20.6406C145.414 20.3672 145.938 19.9297 146.407 19.3281L147.285 19.9961C146.254 21.4883 144.758 22.2344 142.797 22.2344ZM142.539 10.2812C141.485 10.2812 140.594 10.668 139.867 11.4414C139.149 12.2148 138.711 13.2539 138.555 14.5586H146.16V14.4062C146.121 13.1875 145.774 12.1953 145.117 11.4297C144.461 10.6641 143.602 10.2812 142.539 10.2812ZM154.981 9.32031L155.028 11.4883C155.505 10.707 156.099 10.1133 156.809 9.70703C157.52 9.29297 158.306 9.08594 159.165 9.08594C160.524 9.08594 161.536 9.46875 162.2 10.2344C162.864 11 163.2 12.1484 163.208 13.6797V22H161.813V13.668C161.806 12.5352 161.563 11.6914 161.087 11.1367C160.618 10.582 159.864 10.3047 158.825 10.3047C157.958 10.3047 157.188 10.5781 156.517 11.125C155.852 11.6641 155.36 12.3945 155.04 13.3164V22H153.645V9.32031H154.981ZM169.638 15.543C169.638 13.5742 170.076 12.0078 170.951 10.8438C171.834 9.67188 173.029 9.08594 174.537 9.08594C176.248 9.08594 177.552 9.76172 178.451 11.1133V4H179.845V22H178.533L178.474 20.3125C177.576 21.5938 176.255 22.2344 174.513 22.2344C173.052 22.2344 171.873 21.6484 170.974 20.4766C170.084 19.2969 169.638 17.707 169.638 15.707V15.543ZM171.056 15.7891C171.056 17.4062 171.38 18.6836 172.029 19.6211C172.677 20.5508 173.591 21.0156 174.771 21.0156C176.498 21.0156 177.724 20.2539 178.451 18.7305V12.7773C177.724 11.1289 176.505 10.3047 174.794 10.3047C173.615 10.3047 172.697 10.7695 172.041 11.6992C171.384 12.6211 171.056 13.9844 171.056 15.7891Z" fill="#E74C3C"/>
<rect width="16.8556" height="4.87149" rx="2.43575" transform="matrix(0.486925 -0.873444 0.858275 0.51319 0 14.7224)" fill="#E74C3C"/>
<rect width="13.8811" height="5.84579" rx="2.9229" transform="matrix(0.486925 -0.873444 0.858275 0.51319 5.72461 20.4545)" fill="black" fill-opacity="0.9"/>
<rect x="0.6726" y="-0.180127" width="10.8981" height="3.87149" rx="1.93575" transform="matrix(0.486925 -0.873444 0.858275 0.51319 18.5778 16.794)" fill="black" stroke="black"/>
<path d="M14.3827 23.9497L15.873 21.2764C16.3936 20.3427 17.5594 20.0304 18.477 20.5791C19.3945 21.1277 19.7164 22.3295 19.1958 23.2632L17.7055 25.9365C17.185 26.8703 16.0191 27.1825 15.1016 26.6338C14.184 26.0852 13.8622 24.8834 14.3827 23.9497Z" fill="white" stroke="black"/>
</svg>
