<svg width="29" height="29" viewBox="0 0 29 29" fill="none" xmlns="http://www.w3.org/2000/svg">
<rect width="16.8556" height="4.87149" rx="2.43575" transform="matrix(0.486925 -0.873444 0.858275 0.51319 0 14.7224)" fill="#E74C3C"/>
<rect width="13.8811" height="5.84579" rx="2.9229" transform="matrix(0.486925 -0.873444 0.858275 0.51319 5.72461 20.4545)" fill="black" fill-opacity="0.9"/>
<rect x="0.6726" y="-0.180127" width="10.8981" height="3.87149" rx="1.93575" transform="matrix(0.486925 -0.873444 0.858275 0.51319 18.5778 16.794)" fill="black" stroke="black"/>
<path d="M15.1016 26.6338C14.184 26.0852 13.8622 24.8834 14.3827 23.9497L15.873 21.2764C16.3936 20.3427 17.5594 20.0304 18.477 20.5791C19.3945 21.1277 19.7164 22.3295 19.1958 23.2632L17.7055 25.9365C17.185 26.8703 16.0191 27.1825 15.1016 26.6338Z" fill="white" stroke="black"/>
</svg>
