<svg width="15" height="15" viewBox="0 0 15 15" fill="none" xmlns="http://www.w3.org/2000/svg">
<g clip-path="url(#clip0)">
<path d="M14.2002 2.7635C13.6796 2.99187 13.1248 3.14325 12.5464 3.21675C13.1414 2.8615 13.5956 2.30325 13.8091 1.63037C13.2543 1.96112 12.6418 2.19475 11.9891 2.32512C11.4623 1.76425 10.7116 1.41687 9.89257 1.41687C8.30357 1.41687 7.02432 2.70662 7.02432 4.28775C7.02432 4.51525 7.04357 4.73399 7.09082 4.94225C4.7047 4.82587 2.59332 3.68225 1.17495 1.94012C0.92732 2.36975 0.78207 2.8615 0.78207 3.39087C0.78207 4.38487 1.29395 5.266 2.05695 5.77612C1.59582 5.76737 1.14345 5.6335 0.760195 5.42262C0.760195 5.43137 0.760195 5.44275 0.760195 5.45412C0.760195 6.84887 1.75507 8.00737 3.0597 8.27425C2.82607 8.33812 2.57145 8.36874 2.3072 8.36874C2.12345 8.36874 1.93795 8.35824 1.76382 8.31975C2.1357 9.45637 3.19095 10.292 4.4457 10.3191C3.4692 11.083 2.22932 11.5432 0.88707 11.5432C0.651695 11.5432 0.425945 11.5327 0.200195 11.5039C1.47157 12.3237 2.97832 12.7919 4.6032 12.7919C9.8847 12.7919 12.7722 8.41687 12.7722 4.62462C12.7722 4.49775 12.7678 4.37525 12.7617 4.25362C13.3313 3.84937 13.8099 3.3445 14.2002 2.7635Z" fill="#03A9F4"/>
</g>
<defs>
<clipPath id="clip0">
<rect x="0.200195" y="0.10437" width="14" height="14" fill="white"/>
</clipPath>
</defs>
</svg>
